<svg xmlns="http://www.w3.org/2000/svg" xmlns:xlink="http://www.w3.org/1999/xlink" id="Capa_1" data-name="Capa 1" viewBox="0 0 362.07 61.28"><defs><style>      .cls-1 {        fill-rule: evenodd;      }      .cls-1, .cls-2 {        fill: #7663aa;      }      .cls-3 {        fill: url(#Degradado_sin_nombre_134);      }    </style><linearGradient id="Degradado_sin_nombre_134" data-name="Degradado sin nombre 134" x1="104.6" y1="30.64" x2="362.07" y2="30.64" gradientUnits="userSpaceOnUse"><stop offset="0" stop-color="#7663aa"></stop><stop offset=".85" stop-color="#2fa98a"></stop><stop offset=".87" stop-color="#2fa98a"></stop></linearGradient></defs><rect class="cls-2" x="79.06" y="1.52" width="2" height="58.25"></rect><path class="cls-1" d="M52.82,36.68c-3.76-1.83-8.29-.27-10.12,3.49-.77,1.58-.94,3.29-.6,4.88,.12,.54-.13,1.07-.62,1.34l-8.14,4.36c-.82-.99-1.93-1.73-3.2-2.08-.52-.14-.87-.58-.9-1.11l-.46-6.96c-.04-.55,.28-1.04,.8-1.24,2.87-1.07,4.92-3.84,4.92-7.09,0-.74-.1-1.45-.3-2.12-.15-.53,.05-1.08,.51-1.38l7.86-5.09c.42-.27,.94-.27,1.36,0,.81,.54,1.79,.86,2.84,.86,2.83,0,5.12-2.29,5.12-5.12s-2.29-5.12-5.12-5.12-5.12,2.29-5.12,5.12c0,.29,.02,.57,.07,.85,.08,.5-.12,.97-.55,1.24l-7.86,5.09c-.47,.3-1.05,.26-1.47-.1-1.32-1.13-3.03-1.81-4.9-1.81-1.75,0-3.37,.6-4.65,1.6-.44,.34-1.02,.35-1.47,.03l-5.62-3.99c-.45-.32-.63-.88-.45-1.4,.26-.76,.4-1.58,.4-2.43,0-1.2-.28-2.32-.78-3.33l9.04-5.82c.42-.27,.94-.27,1.36,0,.81,.54,1.79,.86,2.84,.86,2.83,0,5.12-2.29,5.12-5.12S30.42,0,27.59,0s-5.12,2.29-5.12,5.12c0,.29,.02,.57,.07,.85,.08,.5-.12,.97-.55,1.24l-9.36,5.7c-1.34-1.21-3.12-1.96-5.07-1.96-4.18,0-7.57,3.39-7.57,7.57s3.39,7.57,7.57,7.57c1.75,0,3.37-.6,4.65-1.6,.44-.34,1.02-.35,1.48-.03l5.62,3.99c.45,.32,.63,.88,.45,1.4-.26,.76-.4,1.58-.4,2.43,0,.51,.05,1.02,.15,1.5,.11,.54-.14,1.07-.63,1.33l-5.96,3.18c-.45,.24-.97,.19-1.36-.13-.91-.74-2.06-1.18-3.33-1.18-2.91,0-5.27,2.36-5.27,5.27s2.36,5.27,5.27,5.27,5.27-2.36,5.27-5.27c0-.16,0-.33-.02-.48-.05-.51,.2-.96,.65-1.2l5.96-3.18c.49-.26,1.07-.17,1.46,.22,.99,1,2.26,1.72,3.68,2.05,.54,.12,.92,.57,.96,1.12l.46,6.96c.04,.53-.26,1.01-.75,1.22-2.3,.98-3.91,3.26-3.91,5.91,0,3.55,2.87,6.42,6.42,6.42s6.42-2.87,6.42-6.42c0-.64-.11-1.25-.28-1.83l8.16-4.36c.49-.27,1.07-.18,1.46,.21,.57,.57,1.24,1.05,2.01,1.42,3.76,1.83,8.29,.27,10.12-3.49,1.83-3.76,.27-8.29-3.49-10.12Z"></path><path class="cls-3" d="M141.35,18.18c-6.49,0-12.91,0-19.4,0-.24,0-.49,.01-.73,.05-6.49,1.06-11.11,7.01-10.65,13.32,.44,5.99,5.33,11.04,11.58,11.56h34.24c-2.86-3.15-5.7-6.27-8.55-9.43h-12.38c-1.53-1.69-3.77-4.17-5.31-5.84h20c6.32,6.96,12.74,14.06,19.06,21.02h-47.21c-.08-.01-.8-.02-.88-.03-9.18-1.01-16.04-8.55-16.52-17.18-.54-9.61,7.16-18.47,17.49-19.22,.04,0,.08,0,.12,0h13.99c1.74,1.95,3.39,3.8,5.13,5.75Zm2.56-5.75c1.69,1.86,3.52,3.88,5.21,5.75h59.69v-5.75c-21.57,.04-43.33-.04-64.9,0Zm13.97,15.41c1.69,1.86,3.55,3.98,5.24,5.84h41.21v-5.84c-21.57,.04-24.88-.04-46.45,0Zm13.83,15.28c1.69,1.86,3.52,3.88,5.21,5.75h31.9v-5.75c-21.57,.04-15.53-.04-37.11,0Zm108.03-8.05v-8.84c0-7.62-6.18-13.8-13.8-13.8h-37.07c-7.62,0-13.8,6.18-13.8,13.8v8.84c0,7.62,6.18,13.8,13.8,13.8h37.07c7.62,0,13.8-6.18,13.8-13.8Zm-12.22,8.04h-40c-3.64,0-6.58-2.95-6.58-6.58v-11.97c0-3.52,2.85-6.37,6.37-6.37h40.16c3.55,0,6.43,2.88,6.43,6.43v12.12c0,3.52-2.85,6.37-6.37,6.37Zm24.48-30.68h-5.99V48.86h5.99V12.43Zm48.95,30.68h-32.02l19.88-21.99,25.14,27.74h8.11s-33.01-36.42-33.01-36.42l-33.47,36.42h50.56s-5.21-5.75-5.21-5.75Z"></path></svg>